<?xml version="1.0" encoding="UTF-8" standalone="no"?>
<svg
   xmlns:dc="http://purl.org/dc/elements/1.1/"
   xmlns:cc="http://creativecommons.org/ns#"
   xmlns:rdf="http://www.w3.org/1999/02/22-rdf-syntax-ns#"
   xmlns:svg="http://www.w3.org/2000/svg"
   xmlns="http://www.w3.org/2000/svg"
   viewBox="0 0 302.36267 302.36267"
   height="48"
   width="48"
   xml:space="preserve"
   id="svg2"
   version="1.1"><metadata
     id="metadata8"><rdf:RDF><cc:Work
         rdf:about=""><dc:format>image/svg+xml</dc:format><dc:type
           rdf:resource="http://purl.org/dc/dcmitype/StillImage" /></cc:Work></rdf:RDF></metadata><defs
     id="defs6"><clipPath
       id="clipPath18"
       clipPathUnits="userSpaceOnUse"><path
         id="path16"
         d="M 0,226.772 H 226.772 V 0 H 0 Z" /></clipPath></defs><g
     transform="matrix(1.3333333,0,0,-1.3333333,0,302.36267)"
     id="g10"><g
       id="g12"><g
         clip-path="url(#clipPath18)"
         id="g14"><g
           transform="translate(182.457,168.8996)"
           id="g20"><path
             id="path22"
             style="fill:#000000;fill-opacity:1;fill-rule:nonzero;stroke:none"
             d="m 0,0 c 0,0 39.358,11.962 -5.981,25.082 0,0 -11.383,45.339 -70.808,19.293 0,0 -41.674,-25.596 -16.785,-49.134 0,0 -6.496,-9.969 0.41,-23.462 0,0 -37.261,-25.801 -22.983,-64.196 0,0 7.765,-17.171 20.692,-24.116 l -2.357,-3.703 c -0.837,-0.801 -1.513,-1.139 -2.483,-0.91 l -20.612,4.894 c -2.65,0.63 -5.391,-0.613 -6.664,-3.021 l -9.605,-18.172 c -1.394,-2.638 -0.422,-5.908 2.187,-7.355 2.608,-1.446 5.893,-0.543 7.395,2.033 l 7.05,12.097 c 0.93,1.597 2.796,2.398 4.595,1.972 l 17.838,-4.225 c 2.164,-0.513 4.423,0.324 5.731,2.122 l 5.591,9.766 c 0,0 19.647,-10.548 39.584,-2.059 l 19.966,-31.622 c 1.28,-2.027 3.927,-2.693 6.013,-1.514 l 14.85,8.389 c 2.294,1.296 3.064,4.231 1.702,6.487 -1.304,2.16 -4.087,2.895 -6.288,1.661 l -8.551,-4.796 c -0.598,-0.336 -1.355,-0.146 -1.722,0.434 l -16.324,25.721 c 0,0 4.347,2.482 7.718,6.945 h 50.807 l 20.58,15.307 v 54.279 h -55.309 c 0,0 -0.05,-0.006 -0.03,-0.004 0.03,0.004 -1.356,1.224 -1.365,2.211 -0.005,0.589 0.247,1.141 0.699,1.517 C -8.604,-33.211 6.837,-18.197 0,0" /></g><g
           transform="translate(169.8516,193.4665)"
           id="g24"><path
             id="path26"
             style="fill:#0e914b;fill-opacity:1;fill-rule:nonzero;stroke:none"
             d="m 0,0 c 0,0 -9.775,27.878 -44.529,18.874 -38.541,-9.984 -43.137,-34.621 -34.96,-40.997 0,0 44.504,1.157 79.489,22.123" /></g><g
           transform="translate(100.2661,165.8122)"
           id="g28"><path
             id="path30"
             style="fill:#6c6263;fill-opacity:1;fill-rule:nonzero;stroke:none"
             d="m 0,0 c 0,0 49.391,4.888 72.929,23.41 0.249,0.195 2.294,-0.64 2.579,-0.724 1.992,-0.586 3.97,-1.219 5.923,-1.924 2.307,-0.833 8.896,-2.602 9.502,-5.561 0.341,-1.659 -1.329,-2.632 -2.598,-3.226 C 86.536,11.132 84.627,10.469 82.763,9.782 76.283,7.392 69.64,5.423 62.956,3.697 54.369,1.477 45.65,-0.353 36.848,-1.473 34.879,-1.723 32.906,-1.935 30.928,-2.094 20.593,-2.922 10.1,-2.444 0,0" /></g><g
           transform="translate(95.3784,161.9538)"
           id="g32"><path
             id="path34"
             style="fill:#ffffff;fill-opacity:1;fill-rule:nonzero;stroke:none"
             d="m 0,0 c 0,0 21.609,-12.862 80.261,4.63 0,0 6.88,-15.349 -10.503,-28.733 -1.588,-1.223 -4.438,-2.772 -6.342,-3.397 -2.938,-0.962 -6.177,-1.66 -9.305,-1.81 -3.03,-0.145 -6.146,0.149 -9.051,1.117 -1.649,0.549 -3.207,1.446 -4.586,2.535 -1.401,1.107 -2.509,2.596 -3.959,3.615 -0.669,0.469 -1.516,0.657 -2.252,0.235 -3.954,-2.266 3.61,-7.488 5.316,-8.415 1.743,-0.947 3.613,-1.656 5.533,-2.154 2.648,-0.688 5.391,-0.975 8.125,-0.954 0.734,0.006 1.468,0.034 2.2,0.081 0,0 -31.513,-17.299 -53.25,11.898 0,0 -8.49,11.962 -2.187,21.352" /></g><g
           transform="translate(139.1104,148.446)"
           id="g36"><path
             id="path38"
             style="fill:#000000;fill-opacity:1;fill-rule:nonzero;stroke:none"
             d="m 0,0 c 0,-1.848 -1.281,-3.346 -2.861,-3.346 -1.581,0 -2.863,1.498 -2.863,3.346 0,1.848 1.282,3.346 2.863,3.346 C -1.281,3.346 0,1.848 0,0" /></g><g
           transform="translate(167.3633,153.0866)"
           id="g40"><path
             id="path42"
             style="fill:#000000;fill-opacity:1;fill-rule:nonzero;stroke:none"
             d="M 0,0 C 0.168,-1.804 -0.972,-3.385 -2.546,-3.531 -4.119,-3.677 -5.531,-2.334 -5.699,-0.53 -5.867,1.273 -4.727,2.854 -3.153,3 -1.579,3.147 -0.168,1.804 0,0" /></g><g
           transform="translate(171.5234,122.402)"
           id="g44"><path
             id="path46"
             style="fill:#f6b281;fill-opacity:1;fill-rule:nonzero;stroke:none"
             d="M 0,0 H 41.417 L 30.42,-8.875 h -40.517 z" /></g><g
           transform="translate(155.2529,92.3683)"
           id="g48"><path
             id="path50"
             style="fill:#f6b281;fill-opacity:1;fill-rule:nonzero;stroke:none"
             d="M 0,0 V 15.178 H 44.568 V -29.776 H 0 v 17.75 l 1.442,-1.229 c 2.317,-1.974 5.536,-2.499 8.36,-1.365 l 13.086,5.848 c 3.033,1.355 4.065,5.148 2.136,7.854 -1.589,2.23 -4.257,2.383 -6.745,1.236 L 7.689,-4.108 C 6.763,-4.563 5.658,-4.446 4.847,-3.81 Z" /></g><g
           transform="translate(150.3008,111.5334)"
           id="g52"><path
             id="path54"
             style="fill:#0e914b;fill-opacity:1;fill-rule:nonzero;stroke:none"
             d="m 0,0 11.282,9.622 c 1.119,0.975 1.146,2.705 0.057,3.712 L 9.938,14.631 C 5.886,11.998 -13.096,0.979 -35.443,6.593 c -1.969,0.495 -3.858,1.272 -5.621,2.277 -4.36,2.485 -12.745,7.846 -16.186,14.025 0,0 -15.626,-14.269 -20.721,-31.854 -2.738,-9.45 -0.948,-19.63 4.29,-27.958 3.43,-5.452 9.528,-12.069 13.674,-14.681 l 12.061,16.887 c 0.886,1.24 2.64,1.466 3.811,0.49 l 3.778,-3.149 c 1.012,-0.843 1.241,-2.307 0.534,-3.419 l -10.212,-16.064 c 0,0 25.535,-16.259 48.323,9.293 0.905,1.016 1.646,2.965 1.646,4.326 v 15.451 l -16.677,12.212 c -2.038,1.713 -2.117,4.823 -0.168,6.635 1.634,1.521 4.599,2.307 6.312,0.876 L 0,-16.421 Z" /></g><g
           transform="translate(205.2236,108.3176)"
           id="g56"><path
             id="path58"
             style="fill:#f6b281;fill-opacity:1;fill-rule:nonzero;stroke:none"
             d="M 0,0 13.601,11.166 13.698,-32.413 0,-43.024 Z" /></g><g
           transform="translate(30.4233,171.3434)"
           id="g60"><path
             id="path62"
             style="fill:#000000;fill-opacity:1;fill-rule:nonzero;stroke:none"
             d="M 0,0 C 3.386,1.095 6.772,1.664 10.158,2.072 13.544,2.46 16.93,2.641 20.316,2.644 23.703,2.648 27.088,2.467 30.475,2.08 33.861,1.672 37.247,1.102 40.633,0 37.247,-1.103 33.861,-1.672 30.475,-2.08 27.088,-2.467 23.703,-2.648 20.316,-2.644 16.93,-2.641 13.544,-2.46 10.158,-2.073 6.772,-1.664 3.386,-1.096 0,0" /></g><g
           transform="translate(20.9053,150.6349)"
           id="g64"><path
             id="path66"
             style="fill:#000000;fill-opacity:1;fill-rule:nonzero;stroke:none"
             d="M 0,0 C 3.386,1.095 6.772,1.664 10.158,2.072 13.544,2.46 16.93,2.641 20.316,2.644 23.703,2.648 27.088,2.467 30.475,2.08 33.861,1.672 37.247,1.102 40.633,0 37.247,-1.103 33.861,-1.672 30.475,-2.08 27.088,-2.467 23.703,-2.648 20.316,-2.644 16.93,-2.641 13.544,-2.46 10.158,-2.073 6.772,-1.664 3.386,-1.096 0,0" /></g><g
           transform="translate(2.769,81.1134)"
           id="g68"><path
             id="path70"
             style="fill:#000000;fill-opacity:1;fill-rule:nonzero;stroke:none"
             d="M 0,0 C 3.386,1.096 6.772,1.664 10.158,2.072 13.544,2.461 16.931,2.641 20.316,2.645 23.703,2.648 27.089,2.467 30.475,2.08 33.861,1.673 37.247,1.103 40.633,0 37.247,-1.103 33.861,-1.672 30.475,-2.08 27.089,-2.467 23.703,-2.648 20.316,-2.644 16.931,-2.641 13.544,-2.46 10.158,-2.072 6.772,-1.664 3.386,-1.096 0,0" /></g><g
           transform="translate(36.5972,9.9845)"
           id="g72"><path
             id="path74"
             style="fill:#a09f9f;fill-opacity:1;fill-rule:nonzero;stroke:none"
             d="M 0,0 C 9.053,1.251 18.106,1.9 27.16,2.368 36.213,2.812 45.267,3.019 54.32,3.021 63.373,3.026 72.426,2.819 81.48,2.377 90.533,1.91 99.586,1.259 108.639,0 99.586,-1.259 90.533,-1.91 81.48,-2.377 72.426,-2.819 63.373,-3.026 54.32,-3.021 45.267,-3.019 36.213,-2.813 27.16,-2.369 18.106,-1.9 9.053,-1.251 0,0" /></g><g
           transform="translate(19.3618,64.3283)"
           id="g76"><path
             id="path78"
             style="fill:#000000;fill-opacity:1;fill-rule:nonzero;stroke:none"
             d="M 0,0 C 3.386,1.096 6.772,1.663 10.158,2.072 13.544,2.46 16.93,2.641 20.316,2.644 23.702,2.648 27.088,2.467 30.475,2.079 33.86,1.672 37.247,1.103 40.633,0 37.247,-1.103 33.86,-1.673 30.475,-2.08 27.088,-2.468 23.702,-2.648 20.316,-2.645 16.93,-2.642 13.544,-2.461 10.158,-2.072 6.772,-1.664 3.386,-1.096 0,0" /></g></g></g></g></svg>