<?xml version="1.0" encoding="UTF-8"?>
<!DOCTYPE svg PUBLIC "-//W3C//DTD SVG 1.1//EN" "http://www.w3.org/Graphics/SVG/1.1/DTD/svg11.dtd">
<svg xmlns="http://www.w3.org/2000/svg" version="1.1" width="1200px" height="900px" style="shape-rendering:geometricPrecision; text-rendering:geometricPrecision; image-rendering:optimizeQuality; fill-rule:evenodd; clip-rule:evenodd" xmlns:xlink="http://www.w3.org/1999/xlink">
<g><path style="opacity:0.985" fill="#201f1e" d="M 735.5,655.5 C 731.119,655.628 726.785,655.295 722.5,654.5C 719.196,652.027 716.362,649.027 714,645.5C 695.256,619.016 677.256,592.016 660,564.5C 659.275,563.941 658.442,563.608 657.5,563.5C 621.194,574.261 585.861,571.594 551.5,555.5C 546,563.833 540.5,572.167 535,580.5C 529.477,587.564 522.31,590.064 513.5,588C 494.228,583.678 474.894,580.012 455.5,577C 448.508,590.485 441.675,603.985 435,617.5C 429.331,623.212 422.497,625.045 414.5,623C 402.281,617.733 398.447,608.9 403,596.5C 411.272,580.289 419.272,563.956 427,547.5C 429.961,538.439 436.127,534.606 445.5,536C 466.886,540.31 488.219,544.81 509.5,549.5C 512.857,545.465 515.857,541.132 518.5,536.5C 451.62,485.971 436.787,422.971 474,347.5C 487.591,323.065 505.091,301.731 526.5,283.5C 518.705,262.966 517.039,241.966 521.5,220.5C 516.788,215.28 512.621,209.613 509,203.5C 501.119,179.736 503.119,156.736 515,134.5C 535.077,102.111 563.244,79.6112 599.5,67C 636.685,53.8452 674.352,52.1785 712.5,62C 736.753,68.9385 755.92,82.7718 770,103.5C 774.863,111.922 778.029,120.922 779.5,130.5C 796.755,134.525 812.755,141.358 827.5,151C 843.28,163.044 844.28,176.044 830.5,190C 820.72,196.149 810.387,201.149 799.5,205C 804.98,238.898 797.147,269.398 776,296.5C 769.698,303.803 763.032,310.803 756,317.5C 756.437,319.757 756.937,322.09 757.5,324.5C 760.633,323.735 763.8,323.068 767,322.5C 816.162,322.133 865.329,322.633 914.5,324C 916.041,325.579 917.208,327.413 918,329.5C 918.667,378.833 918.667,428.167 918,477.5C 916.969,480.539 915.135,483.039 912.5,485C 894.5,498.333 876.5,511.667 858.5,525C 810.167,525.333 761.833,525.667 713.5,526C 706.54,532.806 699.207,539.139 691.5,545C 706.542,568.918 721.708,592.751 737,616.5C 745.93,611.284 755.096,606.451 764.5,602C 779.97,600.804 787.137,607.97 786,623.5C 785.3,627.066 783.467,629.9 780.5,632C 765.337,639.698 750.337,647.531 735.5,655.5 Z"/></g>
<g><path style="opacity:1" fill="#0e8f4a" d="M 648.5,79.5 C 677.261,76.625 704.261,82.125 729.5,96C 743.531,105.04 752.531,117.707 756.5,134C 743.411,142.88 729.411,150.213 714.5,156C 656.102,179.689 595.435,193.022 532.5,196C 527.363,185.64 526.196,174.807 529,163.5C 535.995,141.163 549.162,123.33 568.5,110C 592.766,93.4131 619.433,83.2465 648.5,79.5 Z"/></g>
<g><path style="opacity:1" fill="#6a6062" d="M 769.5,148.5 C 784.621,151.39 798.955,156.557 812.5,164C 815.671,166.341 818.671,168.841 821.5,171.5C 818.065,175.058 814.065,177.891 809.5,180C 739.796,207.942 667.462,220.942 592.5,219C 581.92,218.182 571.586,216.182 561.5,213C 621.949,206.722 679.949,191.388 735.5,167C 747.375,161.567 758.708,155.401 769.5,148.5 Z"/></g>
<g><path style="opacity:0.926" fill="#1f1f1d" d="M 407.5,191.5 C 429.636,191.145 451.636,192.645 473.5,196C 480.167,198.333 480.167,200.667 473.5,203C 441.602,208.022 409.602,208.688 377.5,205C 355.167,201.65 355.167,197.984 377.5,194C 387.654,193.164 397.654,192.331 407.5,191.5 Z"/></g>
<g><path style="opacity:1" fill="#fdfdfd" d="M 774.5,211.5 C 775.5,211.5 776.5,211.5 777.5,211.5C 779.532,244.585 768.532,272.419 744.5,295C 725.101,303.967 704.768,307.3 683.5,305C 669.882,302.2 658.882,295.367 650.5,284.5C 646.618,286.934 642.952,289.601 639.5,292.5C 649.141,305.947 662.141,314.447 678.5,318C 687.783,319.187 697.117,319.853 706.5,320C 671.982,335.008 636.982,336.341 601.5,324C 565.093,309.427 545.426,282.594 542.5,243.5C 542.647,237.971 543.481,232.638 545,227.5C 558.098,232.213 571.598,235.38 585.5,237C 650.255,240.772 713.255,232.272 774.5,211.5 Z"/></g>
<g><path style="opacity:1" fill="#232221" d="M 742.5,240.5 C 753.183,241.006 757.016,246.34 754,256.5C 750.146,260.671 745.646,261.504 740.5,259C 734.671,251.992 735.337,245.825 742.5,240.5 Z"/></g>
<g><path style="opacity:0.932" fill="#1f1f1d" d="M 367.5,249.5 C 388.523,249.174 409.523,249.674 430.5,251C 438.317,251.127 445.651,252.961 452.5,256.5C 450.605,259.283 447.939,260.783 444.5,261C 410.167,265.667 375.833,265.667 341.5,261C 331.054,258.535 331.054,255.868 341.5,253C 350.292,251.652 358.959,250.486 367.5,249.5 Z"/></g>
<g><path style="opacity:1" fill="#242322" d="M 660.5,254.5 C 670.11,253.611 674.61,257.945 674,267.5C 670.521,274.651 665.354,276.151 658.5,272C 654.073,265.498 654.74,259.665 660.5,254.5 Z"/></g>
<g><path style="opacity:1" fill="#0e8f4a" d="M 537.5,305.5 C 575.004,346.838 621.671,362.671 677.5,353C 697.867,349.269 716.867,342.103 734.5,331.5C 736.214,334.299 737.547,337.299 738.5,340.5C 727.168,349.66 715.668,358.66 704,367.5C 702.7,381.74 702.033,396.073 702,410.5C 691.76,402.963 681.26,395.796 670.5,389C 658.175,387.985 651.175,393.652 649.5,406C 650.072,409.384 651.239,412.551 653,415.5C 669.333,427.167 685.667,438.833 702,450.5C 702.667,467.5 702.667,484.5 702,501.5C 664.7,546.306 618.867,557.639 564.5,535.5C 564.491,533.692 564.991,532.025 566,530.5C 574.583,517.67 582.916,504.67 591,491.5C 593.452,477.633 587.785,469.633 574,467.5C 570.237,467.865 566.737,469.032 563.5,471C 552.941,485.894 542.775,501.061 533,516.5C 481.408,480.39 466.408,432.724 488,373.5C 500.077,347.593 516.577,324.927 537.5,305.5 Z"/></g>
<g><path style="opacity:0.878" fill="#d17324" d="M 767.5,340.5 C 806.331,339.335 845.331,339.169 884.5,340C 883.956,340.717 883.289,341.217 882.5,341.5C 844.337,340.501 806.004,340.168 767.5,340.5 Z"/></g>
<g><path style="opacity:1" fill="#ef8125" d="M 767.5,340.5 C 806.004,340.168 844.337,340.501 882.5,341.5C 872.66,349.168 862.66,356.668 852.5,364C 813.5,364.667 774.5,364.667 735.5,364C 746.048,355.904 756.715,348.071 767.5,340.5 Z"/></g>
<g><path style="opacity:0.879" fill="#d27324" d="M 899.5,349.5 C 899.56,348.957 899.893,348.624 900.5,348.5C 901.831,389.998 901.831,431.331 900.5,472.5C 900.832,431.33 900.499,390.33 899.5,349.5 Z"/></g>
<g><path style="opacity:1" fill="#ef8125" d="M 899.5,349.5 C 900.499,390.33 900.832,431.33 900.5,472.5C 888.5,481.5 876.5,490.5 864.5,499.5C 863.502,470.671 863.169,441.671 863.5,412.5C 863.168,400.149 863.501,387.815 864.5,375.5C 876.185,366.809 887.852,358.142 899.5,349.5 Z"/></g>
<g><path style="opacity:1" fill="#ef8125" d="M 718.5,380.5 C 761.167,380.5 803.833,380.5 846.5,380.5C 846.5,423.167 846.5,465.833 846.5,508.5C 803.833,508.5 761.167,508.5 718.5,508.5C 718.333,493.163 718.5,477.83 719,462.5C 722.877,466.022 727.377,468.355 732.5,469.5C 751.151,463.894 769.485,457.394 787.5,450C 794.8,442.24 795.3,434.074 789,425.5C 784.756,420.957 779.589,419.123 773.5,420C 761.054,424.639 748.554,429.139 736,433.5C 730.51,430.015 725.01,426.515 719.5,423C 718.51,408.912 718.176,394.745 718.5,380.5 Z"/></g>
<g><path style="opacity:0.926" fill="#1f1f1d" d="M 329.5,448.5 C 350.634,448.397 371.634,449.897 392.5,453C 395.112,453.639 397.446,454.806 399.5,456.5C 396.543,458.812 393.209,460.312 389.5,461C 358.875,465.181 328.209,465.515 297.5,462C 274.853,458.37 274.853,454.704 297.5,451C 308.323,450.18 318.99,449.346 329.5,448.5 Z"/></g>
<g><path style="opacity:1" fill="#6a4221" d="M 863.5,412.5 C 863.169,441.671 863.502,470.671 864.5,499.5C 864.44,500.043 864.107,500.376 863.5,500.5C 862.17,471.003 862.17,441.669 863.5,412.5 Z"/></g>
<g><path style="opacity:0.932" fill="#1f1f1d" d="M 360.5,498.5 C 384.89,497.937 409.223,498.77 433.5,501C 438.005,501.442 442.005,502.942 445.5,505.5C 443.605,508.283 440.939,509.783 437.5,510C 408.254,513.814 378.921,514.48 349.5,512C 342.219,511.711 335.219,510.211 328.5,507.5C 327.167,506.5 327.167,505.5 328.5,504.5C 330.385,503.391 332.385,502.557 334.5,502C 343.292,500.652 351.959,499.486 360.5,498.5 Z"/></g>
<g><path style="opacity:0.94" fill="#adb0ae" d="M 722.5,654.5 C 726.785,655.295 731.119,655.628 735.5,655.5C 740.062,655.64 744.062,657.14 747.5,660C 739.358,662.354 731.024,663.687 722.5,664C 631.832,668.667 541.166,668.667 450.5,664C 442.752,663.573 435.085,662.573 427.5,661C 426.328,660.581 425.328,659.915 424.5,659C 426.087,658.138 427.754,657.471 429.5,657C 454.071,654.04 478.737,652.373 503.5,652C 576.54,649.822 649.54,650.655 722.5,654.5 Z"/></g>
<g><path style="opacity:0.953" fill="#1f1f1d" d="M 78.5,712.5 C 90.5534,711.407 102.22,712.907 113.5,717C 118.252,719.748 122.419,723.248 126,727.5C 128.5,738.333 124.333,742.5 113.5,740C 98.8856,728.274 83.8856,727.607 68.5,738C 56.0989,752.503 54.2656,768.336 63,785.5C 71.5202,797.335 83.0202,801.835 97.5,799C 103.325,798.336 108.492,796.169 113,792.5C 113.499,787.845 113.666,783.179 113.5,778.5C 105.16,778.666 96.8267,778.5 88.5,778C 87,777.167 85.8333,776 85,774.5C 84.3333,771.5 84.3333,768.5 85,765.5C 85.8333,763.333 87.3333,761.833 89.5,761C 101.833,760.333 114.167,760.333 126.5,761C 129.333,761.833 131.167,763.667 132,766.5C 132.955,777.931 132.622,789.264 131,800.5C 115.985,814.978 98.1519,820.145 77.5,816C 51.715,808.694 38.3817,791.528 37.5,764.5C 38.666,737.029 52.3326,719.696 78.5,712.5 Z"/></g>
<g><path style="opacity:0.95" fill="#1f1f1d" d="M 342.5,712.5 C 347.509,711.771 351.342,713.437 354,717.5C 354.333,728.833 354.667,740.167 355,751.5C 366.141,744.106 377.641,743.606 389.5,750C 395.879,755.036 399.713,761.536 401,769.5C 401.667,783.5 401.667,797.5 401,811.5C 399.336,815.084 396.503,816.751 392.5,816.5C 387.927,816.635 384.761,814.635 383,810.5C 382.667,797.833 382.333,785.167 382,772.5C 380.28,766.214 376.114,763.214 369.5,763.5C 362.863,763.395 358.363,766.395 356,772.5C 354.919,785.865 354.253,799.199 354,812.5C 348.333,817.833 342.667,817.833 337,812.5C 335.356,781.228 335.023,749.894 336,718.5C 337.436,715.558 339.603,713.558 342.5,712.5 Z"/></g>
<g><path style="opacity:0.952" fill="#1f1f1d" d="M 873.5,712.5 C 878.039,711.957 881.873,713.29 885,716.5C 886.227,733.466 886.893,750.466 887,767.5C 895.743,760.546 904.576,753.712 913.5,747C 925.162,744.822 928.995,749.322 925,760.5C 918.5,765.667 912,770.833 905.5,776C 912.667,785.167 919.833,794.333 927,803.5C 928.597,814.572 924.097,818.405 913.5,815C 905.88,805.591 898.38,796.091 891,786.5C 889.667,787.833 888.333,789.167 887,790.5C 886.801,797.885 886.135,805.218 885,812.5C 879.333,817.833 873.667,817.833 868,812.5C 867.554,809.657 867.054,806.824 866.5,804C 867.314,774.852 867.814,745.686 868,716.5C 869.5,714.531 871.333,713.198 873.5,712.5 Z"/></g>
<g><path style="opacity:0.921" fill="#1f1f1d" d="M 151.5,720.5 C 160.709,718.477 166.042,721.977 167.5,731C 165.808,740.69 160.141,744.023 150.5,741C 145.322,736.476 144.155,730.976 147,724.5C 148.397,722.93 149.897,721.596 151.5,720.5 Z"/></g>
<g><path style="opacity:0.912" fill="#1f1f1d" d="M 710.5,720.5 C 722.49,718.658 727.657,723.658 726,735.5C 720.708,743.267 714.375,744.267 707,738.5C 703.119,731.405 704.286,725.405 710.5,720.5 Z"/></g>
<g><path style="opacity:0.926" fill="#1f1f1d" d="M 943.5,720.5 C 956.222,718.721 961.055,724.054 958,736.5C 957.535,737.931 956.701,739.097 955.5,740C 942.571,744.466 936.737,739.966 938,726.5C 939.36,723.977 941.193,721.977 943.5,720.5 Z"/></g>
<g><path style="opacity:0.958" fill="#1f1f1d" d="M 669.5,721.5 C 673.79,720.987 677.623,721.987 681,724.5C 682.432,732.054 682.932,739.721 682.5,747.5C 687.179,747.334 691.845,747.501 696.5,748C 699.666,749.666 701,752.332 700.5,756C 700.919,758.981 699.919,761.314 697.5,763C 692.84,764.503 688.173,764.669 683.5,763.5C 682.667,779.49 682.167,795.49 682,811.5C 679.103,816.155 674.937,817.655 669.5,816C 666.572,814.74 664.739,812.573 664,809.5C 663.5,794.504 663.333,779.504 663.5,764.5C 659.103,764.575 654.77,764.075 650.5,763C 646.872,758.656 646.538,753.99 649.5,749C 654.036,747.621 658.703,747.121 663.5,747.5C 663.109,740.079 663.609,732.746 665,725.5C 666.397,723.93 667.897,722.596 669.5,721.5 Z"/></g>
<g><path style="opacity:0.955" fill="#1f1f1d" d="M 830.5,721.5 C 834.79,720.987 838.623,721.987 842,724.5C 843.432,732.054 843.932,739.721 843.5,747.5C 848.959,747.103 854.292,747.603 859.5,749C 862.462,753.99 862.128,758.656 858.5,763C 853.84,764.503 849.173,764.669 844.5,763.5C 843.667,779.49 843.167,795.49 843,811.5C 841.336,815.084 838.503,816.751 834.5,816.5C 829.927,816.635 826.761,814.635 825,810.5C 824.667,794.833 824.333,779.167 824,763.5C 812.062,766.888 807.062,762.554 809,750.5C 809.5,750 810,749.5 810.5,749C 815.036,747.621 819.703,747.121 824.5,747.5C 824.109,740.079 824.609,732.746 826,725.5C 827.397,723.93 828.897,722.596 830.5,721.5 Z"/></g>
<g><path style="opacity:0.948" fill="#1f1f1d" d="M 200.5,745.5 C 212.512,744 223.512,746.5 233.5,753C 238.045,757.928 240.545,763.761 241,770.5C 241.667,783.5 241.667,796.5 241,809.5C 239.922,814.215 236.922,816.548 232,816.5C 228.268,816.425 225.101,815.092 222.5,812.5C 207.764,820.289 194.264,818.623 182,807.5C 173.973,789.39 179.473,777.89 198.5,773C 206.723,771.733 214.556,772.9 222,776.5C 222.664,769.335 219.498,764.835 212.5,763C 204.293,762.549 196.293,763.715 188.5,766.5C 181.727,765.303 179.227,761.303 181,754.5C 182.5,753 184,751.5 185.5,750C 190.482,748.01 195.482,746.51 200.5,745.5 Z M 203.5,787.5 C 208.267,787.191 212.934,787.691 217.5,789C 224.07,793.291 223.737,797.291 216.5,801C 210.411,803.224 204.578,802.724 199,799.5C 196.346,793.825 197.846,789.825 203.5,787.5 Z"/></g>
<g><path style="opacity:0.949" fill="#1f1f1d" d="M 281.5,745.5 C 311.649,744.815 325.482,759.482 323,789.5C 317.39,809.397 304.223,818.564 283.5,817C 260.165,811.853 249.998,797.353 253,773.5C 256.465,757.867 265.965,748.534 281.5,745.5 Z M 284.5,762.5 C 299.714,763.213 306.214,771.213 304,786.5C 299.228,799.308 290.728,802.808 278.5,797C 271.093,789.226 269.593,780.393 274,770.5C 276.831,766.821 280.331,764.154 284.5,762.5 Z"/></g>
<g><path style="opacity:0.945" fill="#1f1f1d" d="M 435.5,745.5 C 445.573,744.565 455.239,746.065 464.5,750C 470.976,754.439 474.81,760.605 476,768.5C 476.667,782.5 476.667,796.5 476,810.5C 475.727,812.329 474.893,813.829 473.5,815C 467.64,817.472 462.306,816.639 457.5,812.5C 442.764,820.289 429.264,818.623 417,807.5C 411.767,797.402 412.6,787.902 419.5,779C 431.543,771.381 444.043,770.548 457,776.5C 457.664,769.335 454.498,764.835 447.5,763C 439.309,762.67 431.309,763.837 423.5,766.5C 417.041,765.592 414.541,761.926 416,755.5C 417.122,753.376 418.622,751.543 420.5,750C 425.482,748.01 430.482,746.51 435.5,745.5 Z M 439.5,787.5 C 443.936,787.21 448.27,787.71 452.5,789C 456.446,790.72 457.779,793.553 456.5,797.5C 448.56,804.051 440.726,804.051 433,797.5C 431.944,791.923 434.111,788.589 439.5,787.5 Z"/></g>
<g><path style="opacity:0.953" fill="#1f1f1d" d="M 522.5,745.5 C 542.051,743.675 553.551,752.342 557,771.5C 557.667,784.5 557.667,797.5 557,810.5C 554.124,816.015 549.624,817.848 543.5,816C 542.069,815.535 540.903,814.701 540,813.5C 538.963,799.206 537.963,784.873 537,770.5C 534.66,765.381 530.66,763.048 525,763.5C 517.721,763.774 513.054,767.44 511,774.5C 510.963,787.595 510.296,800.595 509,813.5C 504.516,816.805 499.683,817.305 494.5,815C 493.299,814.097 492.465,812.931 492,811.5C 491.333,791.5 491.333,771.5 492,751.5C 493.8,747.765 496.8,746.098 501,746.5C 505.259,746.296 508.592,747.963 511,751.5C 514.575,748.798 518.408,746.798 522.5,745.5 Z"/></g>
<g><path style="opacity:0.946" fill="#1f1f1d" d="M 595.5,745.5 C 604.908,744.352 613.574,746.352 621.5,751.5C 624.932,746.695 629.599,745.195 635.5,747C 638.094,748.339 639.594,750.506 640,753.5C 640.667,773.167 640.667,792.833 640,812.5C 638.766,830.4 629.266,840.567 611.5,843C 600.051,844.258 589.051,842.592 578.5,838C 572.975,835.081 571.142,830.581 573,824.5C 575.707,820.965 579.207,819.798 583.5,821C 593.728,826.992 604.395,827.992 615.5,824C 619.791,819.962 621.125,815.128 619.5,809.5C 609.277,815.14 598.611,815.973 587.5,812C 574.795,805.276 568.462,794.61 568.5,780C 569.259,761.77 578.259,750.27 595.5,745.5 Z M 600.5,762.5 C 612.793,761.958 619.793,767.791 621.5,780C 619.137,794.681 610.804,800.014 596.5,796C 587.214,788.789 585.381,779.956 591,769.5C 593.529,766.115 596.696,763.782 600.5,762.5 Z"/></g>
<g><path style="opacity:0.954" fill="#1f1f1d" d="M 765.5,745.5 C 792.766,744.933 805.599,758.266 804,785.5C 803.167,786.333 802.333,787.167 801.5,788C 786.837,788.5 772.17,788.667 757.5,788.5C 758.895,796.887 763.895,800.887 772.5,800.5C 776.327,800.392 779.993,799.558 783.5,798C 786.167,796 788.833,794 791.5,792C 800.79,790.378 804.29,794.211 802,803.5C 794.769,812.925 785.102,817.592 773,817.5C 745.779,814.761 734.112,799.761 738,772.5C 741.756,757.91 750.923,748.91 765.5,745.5 Z M 769.5,761.5 C 777.314,761.474 782.981,764.974 786.5,772C 776.833,772.667 767.167,772.667 757.5,772C 759.873,766.449 763.873,762.949 769.5,761.5 Z"/></g>
<g><path style="opacity:0.952" fill="#1f1f1d" d="M 998.5,745.5 C 1025.48,745.099 1038.32,758.432 1037,785.5C 1036.17,786.333 1035.33,787.167 1034.5,788C 1019.5,788.333 1004.5,788.667 989.5,789C 994.234,799.699 1002.23,803.033 1013.5,799C 1017.17,796.667 1020.83,794.333 1024.5,792C 1035.5,791.709 1038.33,796.542 1033,806.5C 1018.92,818.083 1003.42,820.25 986.5,813C 970.863,801.419 966.03,786.253 972,767.5C 977.146,755.504 985.98,748.17 998.5,745.5 Z M 1002.5,761.5 C 1010.07,761.284 1015.4,764.617 1018.5,771.5C 1009.19,772.498 999.857,772.832 990.5,772.5C 990.781,770.037 991.781,767.87 993.5,766C 996.324,763.921 999.324,762.421 1002.5,761.5 Z"/></g>
<g><path style="opacity:0.953" fill="#1f1f1d" d="M 1080.5,745.5 C 1091.78,744.022 1101.28,747.355 1109,755.5C 1121.19,744.482 1134.69,742.649 1149.5,750C 1155.15,754.127 1158.65,759.627 1160,766.5C 1160.6,771.991 1161.1,777.491 1161.5,783C 1161.72,792.842 1161.22,802.676 1160,812.5C 1154.33,817.833 1148.67,817.833 1143,812.5C 1142.21,798.837 1141.54,785.171 1141,771.5C 1138.91,766.112 1134.91,763.445 1129,763.5C 1122.6,763.532 1118.27,766.532 1116,772.5C 1114.76,785.787 1114.1,799.12 1114,812.5C 1108.33,817.833 1102.67,817.833 1097,812.5C 1096.67,811.167 1096.33,809.833 1096,808.5C 1095.67,796.167 1095.33,783.833 1095,771.5C 1092.87,766.098 1088.87,763.431 1083,763.5C 1077.09,763.621 1072.76,766.288 1070,771.5C 1069.04,785.539 1068.04,799.539 1067,813.5C 1062.45,817.087 1057.62,817.42 1052.5,814.5C 1051.19,813.088 1050.36,811.421 1050,809.5C 1049.04,789.435 1049.37,769.435 1051,749.5C 1057.63,744.962 1063.63,745.629 1069,751.5C 1072.57,748.798 1076.41,746.798 1080.5,745.5 Z"/></g>
<g><path style="opacity:0.959" fill="#1f1f1d" d="M 151.5,746.5 C 154.85,746.335 158.183,746.502 161.5,747C 163,747.833 164.167,749 165,750.5C 165.667,771.167 165.667,791.833 165,812.5C 160.8,816.714 155.966,817.548 150.5,815C 148.513,813.681 147.346,811.848 147,809.5C 146.333,790.5 146.333,771.5 147,752.5C 147.599,749.746 149.099,747.746 151.5,746.5 Z"/></g>
<g><path style="opacity:0.943" fill="#1f1f1d" d="M 710.5,746.5 C 714.911,746.021 719.078,746.688 723,748.5C 723.862,750.087 724.529,751.754 725,753.5C 725.667,772.167 725.667,790.833 725,809.5C 722.611,815.777 718.111,817.943 711.5,816C 709.714,815.215 708.214,814.049 707,812.5C 705.38,791.842 705.38,771.176 707,750.5C 707.69,748.65 708.856,747.316 710.5,746.5 Z"/></g>
<g><path style="opacity:0.958" fill="#1f1f1d" d="M 943.5,746.5 C 948.849,745.461 953.349,746.795 957,750.5C 957.667,770.833 957.667,791.167 957,811.5C 955.336,815.084 952.503,816.751 948.5,816.5C 943.927,816.635 940.761,814.635 939,810.5C 938.333,791.167 938.333,771.833 939,752.5C 939.599,749.746 941.099,747.746 943.5,746.5 Z"/></g>
</svg>
