<?xml version="1.0" standalone="no"?>
<!DOCTYPE svg PUBLIC "-//W3C//DTD SVG 20010904//EN"
 "http://www.w3.org/TR/2001/REC-SVG-20010904/DTD/svg10.dtd">
<svg version="1.0" xmlns="http://www.w3.org/2000/svg"
 width="48" height="48" viewBox="0 0 1654.000000 886.000000"
 preserveAspectRatio="xMidYMid meet">

<g transform="translate(0.000000,886.000000) scale(0.100000,-0.100000)"
fill="#000000" stroke="none">
<path d="M4765 6471 c-68 -31 -75 -54 -75 -252 l0 -174 29 36 c48 58 134 90
258 97 113 5 145 18 187 75 29 40 29 134 0 174 -39 53 -75 63 -224 63 -110 0
-143 -4 -175 -19z"/>
<path d="M13190 6408 c-18 -13 -43 -36 -54 -51 -21 -28 -21 -35 -24 -779 -3
-847 -2 -864 64 -998 48 -98 160 -212 254 -258 115 -56 156 -62 448 -62 285 0
292 1 343 57 37 39 49 83 49 174 l0 77 -232 4 c-260 4 -290 10 -355 79 -71 76
-67 27 -73 901 -5 776 -5 787 -26 815 -39 53 -75 63 -225 63 -125 0 -139 -2
-169 -22z"/>
<path d="M8095 6413 c-37 -10 -77 -46 -96 -87 -15 -34 -19 -66 -19 -178 l0
-138 -145 0 -145 0 0 -103 c0 -92 2 -106 24 -138 36 -53 78 -69 179 -69 l86 0
4 -492 c4 -528 5 -534 58 -645 35 -75 133 -164 231 -212 148 -72 263 -91 565
-91 199 0 202 0 230 24 28 24 28 26 31 154 l4 129 -145 7 c-268 13 -376 55
-432 167 -39 76 -46 169 -43 579 l3 375 500 0 500 0 5 -505 c6 -497 6 -506 29
-568 61 -166 221 -288 441 -337 55 -13 142 -18 327 -22 l252 -5 31 30 30 30 0
124 0 124 -167 11 c-203 13 -278 34 -346 93 -25 22 -56 62 -69 88 -23 47 -23
49 -26 495 l-3 447 248 0 c230 0 250 2 281 20 58 36 72 72 72 188 l0 102 -300
0 -300 0 0 138 c0 123 -2 143 -22 182 -17 33 -35 51 -68 68 -41 21 -55 23
-176 20 -125 -3 -132 -4 -167 -31 -57 -43 -62 -58 -67 -222 l-5 -150 -500 0
-500 0 -5 156 c-6 177 -13 198 -83 230 -34 15 -64 18 -162 18 -66 -1 -129 -4
-140 -6z"/>
<path d="M6220 6010 c-184 -19 -362 -69 -467 -131 -79 -47 -172 -142 -211
-216 -18 -34 -42 -97 -53 -140 -42 -164 -44 -590 -4 -773 9 -41 34 -111 55
-156 71 -148 221 -260 415 -310 63 -16 138 -18 773 -21 l703 -4 29 30 30 29 0
125 0 125 -607 5 c-646 4 -664 6 -758 54 -52 28 -89 67 -114 123 -21 48 -47
210 -37 235 5 13 93 15 669 15 733 0 725 -1 809 63 24 18 56 57 73 87 27 51
29 65 33 175 12 386 -177 598 -598 671 -111 19 -602 28 -740 14z m519 -321
c204 -33 321 -131 329 -278 7 -112 35 -105 -457 -112 -297 -4 -427 -9 -456
-18 -66 -22 -118 -52 -154 -90 l-34 -36 6 140 c7 163 17 200 71 262 62 71 145
115 251 132 73 12 370 13 444 0z"/>
<path d="M11493 6010 c-283 -30 -466 -100 -593 -229 -80 -82 -125 -168 -153
-299 -17 -83 -20 -133 -21 -342 0 -269 8 -346 53 -477 66 -190 211 -316 433
-375 81 -21 100 -22 778 -25 546 -3 699 -1 718 9 42 22 52 57 52 183 l0 115
-532 0 c-558 1 -692 7 -783 36 -61 19 -136 78 -161 127 -19 35 -43 162 -44
225 l0 42 668 0 c738 0 730 -1 814 63 27 20 54 55 73 92 29 57 30 62 29 199 0
103 -5 159 -18 206 -65 238 -254 380 -580 436 -106 18 -602 28 -733 14z m587
-335 c89 -28 144 -61 192 -113 67 -75 90 -183 49 -233 l-19 -24 -419 -5 c-401
-6 -421 -7 -486 -29 -52 -17 -80 -34 -114 -68 l-46 -45 5 144 c4 133 6 149 32
201 43 90 136 153 267 182 94 21 462 15 539 -10z"/>
<path d="M2283 5998 c30 -74 843 -1632 866 -1660 17 -20 57 -49 88 -65 56 -27
63 -28 213 -28 146 0 158 1 211 26 31 15 70 44 88 65 24 29 837 1586 868 1662
5 11 -27 13 -174 10 l-179 -3 -76 -38 c-93 -45 -154 -109 -203 -211 -19 -39
-137 -291 -264 -560 -126 -269 -239 -501 -250 -515 l-20 -26 -18 23 c-10 12
-137 274 -283 583 -300 636 -302 639 -437 706 l-77 38 -179 3 c-147 3 -179 1
-174 -10z"/>
<path d="M4753 5991 c-66 -41 -63 1 -63 -858 0 -745 1 -779 19 -807 40 -60 61
-66 227 -66 140 0 153 2 185 23 72 48 69 5 69 850 0 820 2 795 -54 847 -27 24
-33 25 -189 28 -147 2 -165 1 -194 -17z"/>
<path d="M8787 3184 c-59 -48 -66 -58 -56 -75 5 -11 17 -23 24 -25 15 -6 133
79 142 103 5 13 -23 53 -36 53 -3 0 -36 -25 -74 -56z"/>
<path d="M11280 3216 c0 -24 4 -26 39 -26 22 0 46 -3 55 -6 23 -9 20 -41 -4
-49 -14 -4 -20 -15 -20 -36 0 -22 5 -29 20 -29 11 0 29 8 40 18 11 9 29 25 40
35 27 23 25 59 -5 87 -21 20 -39 25 -95 28 -70 4 -70 4 -70 -22z"/>
<path d="M5400 3175 l0 -35 110 0 110 0 0 -315 0 -315 40 0 40 0 0 315 0 315
95 0 95 0 0 35 0 35 -245 0 -245 0 0 -35z"/>
<path d="M5940 2860 l0 -350 35 0 35 0 2 233 3 232 137 0 c137 0 138 0 165
-28 l28 -27 3 -205 3 -205 41 0 40 0 -3 208 c-4 186 -6 210 -24 242 -38 63
-71 74 -240 80 l-150 5 -3 83 -3 82 -34 0 -35 0 0 -350z"/>
<path d="M9710 2860 l0 -350 40 0 40 0 0 236 0 236 140 -4 c137 -3 140 -3 167
-31 l28 -27 3 -205 3 -205 40 0 40 0 -3 208 c-3 239 -10 260 -88 300 -40 20
-59 22 -187 22 l-143 0 0 85 0 85 -40 0 -40 0 0 -350z"/>
<path d="M12550 2881 l0 -330 26 -20 c24 -19 40 -21 168 -21 77 0 157 5 177
10 56 16 101 51 129 100 22 40 25 57 25 150 0 94 -3 111 -26 155 -47 92 -105
115 -291 115 l-128 0 0 85 0 85 -40 0 -40 0 0 -329z m367 76 c56 -30 67 -58
71 -176 3 -92 0 -110 -17 -138 -35 -56 -70 -67 -211 -68 l-125 0 -3 204 -2
203 127 -4 c97 -3 136 -8 160 -21z"/>
<path d="M7273 3040 c-84 -18 -149 -72 -174 -147 -17 -49 -17 -175 0 -233 17
-60 82 -122 147 -141 64 -18 225 -18 289 0 66 20 126 80 146 146 17 60 17 176
-1 229 -17 52 -66 106 -119 129 -50 22 -218 32 -288 17z m261 -80 c57 -29 71
-61 74 -173 4 -125 -11 -161 -78 -194 -37 -19 -61 -23 -140 -23 -79 0 -103 4
-140 23 -63 31 -80 69 -80 180 0 122 26 175 96 197 46 14 234 7 268 -10z"/>
<path d="M6660 3031 c-77 -24 -132 -75 -150 -139 -5 -20 -10 -80 -10 -132 0
-104 17 -156 61 -197 50 -46 87 -53 279 -53 l180 0 0 29 0 29 -177 4 c-146 2
-182 6 -201 20 -37 26 -52 54 -59 108 l-6 50 205 0 c192 0 206 1 226 20 25 23
30 96 11 147 -17 46 -69 92 -123 108 -52 16 -193 19 -236 6z m191 -61 c54 -15
92 -61 93 -112 l1 -43 -182 -3 -183 -2 0 25 c0 35 23 86 48 109 37 33 150 46
223 26z"/>
<path d="M8157 3025 c-102 -38 -139 -96 -145 -230 -6 -119 8 -169 62 -220 58
-56 97 -65 280 -65 l156 0 0 30 0 30 -127 0 c-244 1 -287 32 -287 206 0 105
17 145 74 179 30 17 56 21 178 23 l142 4 0 29 0 29 -147 -1 c-100 0 -160 -5
-186 -14z"/>
<path d="M8600 3010 l0 -30 159 0 c88 0 171 -4 184 -9 26 -10 47 -55 47 -101
l0 -28 -162 -4 c-182 -5 -213 -14 -248 -71 -24 -39 -27 -131 -6 -182 28 -67
57 -75 267 -75 243 0 224 -20 224 234 0 294 -1 296 -285 296 l-180 0 0 -30z
m388 -337 l-3 -98 -152 0 c-179 0 -184 2 -191 89 -4 48 -2 57 21 80 26 26 28
26 177 26 l151 0 -3 -97z"/>
<path d="M9287 3025 c-102 -38 -139 -96 -145 -230 -6 -119 8 -169 62 -220 58
-56 97 -65 280 -65 l156 0 0 30 0 30 -125 0 c-162 0 -216 12 -254 55 -36 41
-47 119 -32 215 18 114 68 140 269 140 l122 0 0 30 0 30 -147 -1 c-100 0 -160
-5 -186 -14z"/>
<path d="M10707 3025 c-94 -35 -135 -97 -144 -217 -8 -112 10 -181 60 -232 57
-57 96 -66 276 -66 l151 0 0 30 0 30 -122 0 c-240 1 -281 31 -280 207 1 108
16 144 72 178 30 17 56 21 178 23 l142 4 0 29 0 29 -147 -1 c-100 0 -160 -5
-186 -14z"/>
<path d="M11122 2826 c3 -198 5 -217 24 -242 48 -66 59 -69 250 -72 l174 -3
25 25 25 25 0 241 0 240 -40 0 -40 0 0 -229 c0 -199 -2 -230 -16 -235 -26 -10
-216 -7 -257 5 -60 16 -67 44 -67 269 l0 190 -41 0 -40 0 3 -214z"/>
<path d="M11740 3010 l0 -30 154 0 c85 0 166 -4 179 -9 26 -10 47 -55 47 -101
l0 -28 -162 -4 c-129 -3 -170 -8 -195 -21 -81 -43 -96 -191 -27 -266 l32 -36
187 -3 c157 -3 190 -1 211 13 l24 15 0 209 c0 196 -1 210 -21 235 -40 51 -63
56 -254 56 l-175 0 0 -30z m378 -337 l-3 -98 -130 -3 c-193 -4 -205 2 -205
103 0 92 6 95 193 95 l148 0 -3 -97z"/>
<path d="M13180 3011 l0 -30 175 -3 c200 -3 205 -5 213 -86 l4 -50 -163 -4
c-189 -4 -231 -17 -261 -78 -23 -45 -23 -124 1 -176 30 -67 57 -74 275 -74
245 0 226 -20 226 233 0 293 -4 297 -287 297 l-183 0 0 -29z m388 -338 l-3
-98 -146 -3 c-135 -2 -148 -1 -172 18 -24 19 -27 28 -27 81 0 95 7 99 195 99
l156 0 -3 -97z"/>
<path d="M13767 3022 c-15 -16 -17 -50 -17 -265 l0 -247 40 0 40 0 0 235 0
235 129 0 c221 0 221 -1 221 -280 l0 -190 40 0 40 0 0 202 c0 183 -2 206 -21
244 -15 31 -32 48 -63 63 -38 19 -61 21 -218 21 -157 0 -177 -2 -191 -18z"/>
<path d="M13350 2420 l0 -40 50 0 50 0 0 40 0 40 -50 0 -50 0 0 -40z"/>
</g>
</svg>
