<?xml version="1.0" standalone="no"?>
<!DOCTYPE svg PUBLIC "-//W3C//DTD SVG 20010904//EN"
 "http://www.w3.org/TR/2001/REC-SVG-20010904/DTD/svg10.dtd">
<svg version="1.0" xmlns="http://www.w3.org/2000/svg"
 width="26.000000pt" height="24.000000pt" viewBox="0 0 26.000000 24.000000"
 preserveAspectRatio="xMidYMid meet">

<g transform="translate(0.000000,24.000000) scale(0.100000,-0.100000)"
fill="#000000" stroke="none">
<path d="M42 208 c-7 -7 -11 -23 -11 -37 1 -24 2 -24 8 4 5 23 13 31 36 36 28
6 28 7 5 8 -15 0 -31 -4 -38 -11z"/>
<path d="M185 211 c23 -5 31 -13 36 -36 6 -28 7 -28 8 -4 1 32 -16 49 -49 48
-23 -1 -23 -2 5 -8z"/>
<path d="M60 160 c0 -25 4 -30 25 -30 21 0 25 5 25 30 0 25 -4 30 -25 30 -21
0 -25 -5 -25 -30z m40 0 c0 -11 -7 -20 -15 -20 -8 0 -15 9 -15 20 0 11 7 20
15 20 8 0 15 -9 15 -20z"/>
<path d="M152 168 c2 -15 10 -23 23 -23 13 0 21 8 23 23 3 18 -1 22 -23 22
-22 0 -26 -4 -23 -22z m38 -4 c0 -9 -5 -14 -12 -12 -18 6 -21 28 -4 28 9 0 16
-7 16 -16z"/>
<path d="M130 151 c0 -26 -4 -30 -32 -34 -32 -4 -32 -4 5 -5 36 -2 37 -1 37
33 0 19 -2 35 -5 35 -3 0 -5 -13 -5 -29z"/>
<path d="M150 121 c0 -4 11 -6 25 -3 14 2 25 6 25 8 0 2 -11 4 -25 4 -14 0
-25 -4 -25 -9z"/>
<path d="M178 93 c17 -7 15 -33 -2 -33 -8 0 -17 8 -19 18 -4 13 -5 11 -6 -5
-1 -18 4 -23 24 -23 20 0 25 5 25 25 0 17 -5 25 -17 24 -11 0 -13 -3 -5 -6z"/>
<path d="M31 70 c0 -15 4 -31 11 -38 7 -7 23 -11 38 -11 23 1 23 2 -5 8 -23 5
-31 13 -36 36 -6 28 -7 28 -8 5z"/>
<path d="M60 70 c0 -15 7 -20 25 -20 18 0 25 5 25 20 0 15 -7 20 -25 20 -18 0
-25 -5 -25 -20z m40 0 c0 -5 -7 -10 -15 -10 -8 0 -15 5 -15 10 0 6 7 10 15 10
8 0 15 -4 15 -10z"/>
<path d="M219 65 c-3 -24 -10 -31 -34 -36 -29 -6 -29 -7 -4 -8 32 -1 52 20 47
51 -4 20 -5 19 -9 -7z"/>
</g>
</svg>
