<?xml version="1.0" standalone="no"?>
<!DOCTYPE svg PUBLIC "-//W3C//DTD SVG 20010904//EN"
 "http://www.w3.org/TR/2001/REC-SVG-20010904/DTD/svg10.dtd">
<svg version="1.0" xmlns="http://www.w3.org/2000/svg"
 width="170.000000pt" height="27.000000pt" viewBox="0 0 170.000000 27.000000"
 preserveAspectRatio="xMidYMid meet">

<g transform="translate(0.000000,27.000000) scale(0.100000,-0.100000)"
fill="#000000" stroke="none">
<path d="M592 207 c-48 -51 -13 -137 54 -137 64 0 100 60 70 118 -25 49 -87
58 -124 19z"/>
<path d="M1247 223 c40 -4 42 -6 46 -41 l4 -37 1 43 2 42 -47 -2 -48 -1 42 -4z"/>
<path d="M1424 216 c-8 -22 0 -81 11 -81 6 0 11 10 13 23 4 26 32 30 32 4 0
-23 -19 -42 -42 -42 -13 0 -18 -8 -18 -25 0 -21 5 -25 29 -25 35 0 41 13 41
96 l0 64 -30 0 c-17 0 -33 -6 -36 -14z"/>
<path d="M1507 223 c-4 -3 -7 -15 -7 -25 0 -14 8 -18 33 -19 17 0 25 -3 17 -6
-8 -2 -21 -7 -29 -9 -11 -3 -11 -7 -1 -19 10 -12 9 -15 -4 -15 -11 0 -16 -9
-16 -31 0 -28 2 -30 33 -27 l32 3 3 78 3 77 -29 0 c-16 0 -32 -3 -35 -7z"/>
<path d="M1597 223 c-18 -17 -6 -41 23 -45 27 -4 30 -2 30 24 0 23 -4 28 -23
28 -13 0 -27 -3 -30 -7z"/>
<path d="M19 208 c18 -9 29 -30 41 -73 22 -81 43 -84 74 -13 37 84 40 98 21
98 -10 0 -24 -20 -38 -52 l-21 -52 -11 50 c-10 48 -11 49 -50 52 -38 2 -39 2
-16 -10z"/>
<path d="M180 163 c-6 -32 -14 -66 -16 -75 -4 -13 0 -18 14 -18 16 0 22 13 34
75 14 71 14 75 -3 75 -13 0 -20 -13 -29 -57z"/>
<path d="M256 205 c-24 -24 -20 -54 9 -67 32 -14 27 -33 -8 -33 -27 1 -44 -19
-26 -31 18 -11 78 6 89 26 13 25 4 45 -26 59 -30 13 -23 31 12 31 16 0 24 5
22 13 -7 19 -53 20 -72 2z"/>
<path d="M366 166 c-37 -83 -40 -96 -21 -96 8 0 18 7 21 15 8 19 50 19 58 0 8
-21 35 -19 30 3 -2 9 -8 43 -14 75 -9 46 -15 57 -31 57 -14 0 -26 -15 -43 -54z
m36 -44 c-21 -6 -25 4 -11 30 l13 23 6 -25 c4 -17 2 -26 -8 -28z"/>
<path d="M1618 122 c-22 -3 -28 -9 -28 -28 0 -19 5 -24 25 -24 26 0 40 18 33
42 -2 8 -14 12 -30 10z"/>
<path d="M1208 73 c17 -2 47 -2 65 0 17 2 3 4 -33 4 -36 0 -50 -2 -32 -4z"/>
</g>
</svg>
